<svg width="65" height="65" viewBox="0 0 65 65" fill="none" xmlns="http://www.w3.org/2000/svg">
<path d="M48.5483 38.5926V25.9938C48.5483 25.4058 48.0864 24.9438 47.4984 24.9438C46.9105 24.9438 46.4485 25.4058 46.4485 25.9938V38.5926C46.4485 46.1099 40.3171 52.2414 32.7998 52.2414C25.2825 52.2414 19.1511 46.1099 19.1511 38.5926V25.9938C19.1511 25.4058 18.6891 24.9438 18.1012 24.9438C17.5132 24.9438 17.0513 25.4058 17.0513 25.9938V38.5926C17.0513 46.9288 23.5607 53.7532 31.7499 54.2992V60.6406H22.3008C21.7128 60.6406 21.2509 61.1025 21.2509 61.6905C21.2509 62.2784 21.7128 62.7404 22.3008 62.7404H43.2988C43.8868 62.7404 44.3487 62.2784 44.3487 61.6905C44.3487 61.1025 43.8868 60.6406 43.2988 60.6406H33.8497V54.2992C42.0389 53.7532 48.5483 46.9078 48.5483 38.5926Z" fill="black"/>
<path d="M32.8007 48.042C38.0082 48.042 42.2498 43.8004 42.2498 38.5928V11.2953C42.2498 6.0878 38.0082 1.84619 32.8007 1.84619C27.5932 1.84619 23.3516 6.0878 23.3516 11.2953V38.5928C23.3516 43.8004 27.5932 48.042 32.8007 48.042ZM25.4514 11.2953C25.4514 7.2427 28.7481 3.946 32.8007 3.946C36.8533 3.946 40.15 7.2427 40.15 11.2953V38.5928C40.15 42.6455 36.8533 45.9422 32.8007 45.9422C28.7481 45.9422 25.4514 42.6455 25.4514 38.5928V11.2953V11.2953Z" fill="black"/>
<path d="M28.0337 25.8046C28.3277 25.8046 28.5587 25.5736 28.5587 25.2796V12.6808C28.5587 9.88801 30.8265 7.59922 33.6402 7.59922C33.9342 7.59922 34.1652 7.36824 34.1652 7.07427C34.1652 6.7803 33.9342 6.54932 33.6402 6.54932C30.2595 6.54932 27.5088 9.30006 27.5088 12.6808V25.2796C27.5088 25.5736 27.7398 25.8046 28.0337 25.8046Z" fill="black"/>
</svg>
