<svg width="65" height="65" viewBox="0 0 65 65" fill="none" xmlns="http://www.w3.org/2000/svg">
<path d="M46.4367 9.38293C50.2244 9.38293 50.982 13.1707 50.982 14.6858C50.982 16.9585 48.7093 19.2311 44.9216 19.2311C41.1338 19.2311 37.346 19.2311 33.5583 19.2311C30.5281 19.2311 29.7705 21.7563 29.7705 23.0189" stroke="black" stroke-width="1.5" stroke-linecap="round"/>
<rect x="4.00537" y="23.769" width="57.5891" height="25.7719" rx="1.25" stroke="black" stroke-width="1.5"/>
<rect x="7.80078" y="27.564" width="3.03021" height="3.03021" fill="black"/>
<rect x="7.80078" y="27.564" width="3.03021" height="3.03021" fill="black"/>
<rect x="7.80078" y="36.655" width="3.03021" height="3.03021" fill="black"/>
<rect x="19.9219" y="27.564" width="3.03021" height="3.03021" fill="black"/>
<rect x="22.9512" y="32.11" width="3.03021" height="3.03021" fill="black"/>
<rect x="19.9219" y="36.655" width="3.03021" height="3.03021" fill="black"/>
<rect x="16.8926" y="41.2002" width="33.3323" height="3.03021" fill="black"/>
<rect x="32.0425" y="27.564" width="3.03021" height="3.03021" fill="black"/>
<rect x="35.0728" y="32.11" width="3.03021" height="3.03021" fill="black"/>
<rect x="32.0425" y="36.655" width="3.03021" height="3.03021" fill="black"/>
<rect x="44.1641" y="27.564" width="3.03021" height="3.03021" fill="black"/>
<rect x="47.1934" y="32.11" width="3.03021" height="3.03021" fill="black"/>
<rect x="44.1641" y="36.655" width="3.03021" height="3.03021" fill="black"/>
<rect x="13.8608" y="27.564" width="3.03021" height="3.03021" fill="black"/>
<rect x="10.8315" y="32.11" width="3.03021" height="3.03021" fill="black"/>
<rect x="16.8926" y="32.11" width="3.03021" height="3.03021" fill="black"/>
<rect x="13.8608" y="36.655" width="3.03021" height="3.03021" fill="black"/>
<rect x="10.8315" y="41.2002" width="3.03021" height="3.03021" fill="black"/>
<rect x="25.9824" y="27.564" width="3.03021" height="3.03021" fill="black"/>
<rect x="29.0117" y="32.11" width="3.03021" height="3.03021" fill="black"/>
<rect x="25.9824" y="36.655" width="3.03021" height="3.03021" fill="black"/>
<rect x="38.1035" y="27.564" width="3.03021" height="3.03021" fill="black"/>
<rect x="41.1328" y="32.11" width="3.03021" height="3.03021" fill="black"/>
<rect x="38.1035" y="36.655" width="3.03021" height="3.03021" fill="black"/>
<rect x="50.2236" y="27.564" width="3.03021" height="3.03021" fill="black"/>
<rect x="53.2544" y="32.11" width="3.03021" height="3.03021" fill="black"/>
<rect x="50.2236" y="36.655" width="3.03021" height="3.03021" fill="black"/>
<rect x="53.2544" y="41.2002" width="3.03021" height="3.03021" fill="black"/>
<rect x="56.2837" y="27.564" width="3.03021" height="3.03021" fill="black"/>
<rect x="56.2837" y="36.655" width="3.03021" height="3.03021" fill="black"/>
</svg>
