<svg width="65" height="64" viewBox="0 0 65 64" fill="none" xmlns="http://www.w3.org/2000/svg">
<path d="M28.6709 46.6866V46.4171C28.6709 45.5031 28.8037 44.6554 29.0693 43.8741C29.335 43.0851 29.7178 42.4015 30.2178 41.8234C30.7178 41.2374 31.3232 40.7843 32.0342 40.464C32.7451 40.1359 33.542 39.9718 34.4248 39.9718C35.3154 39.9718 36.1162 40.1359 36.8271 40.464C37.5459 40.7843 38.1553 41.2374 38.6553 41.8234C39.1631 42.4015 39.5498 43.0851 39.8154 43.8741C40.0811 44.6554 40.2139 45.5031 40.2139 46.4171V46.6866C40.2139 47.6007 40.0811 48.4484 39.8154 49.2296C39.5498 50.0109 39.1631 50.6945 38.6553 51.2804C38.1553 51.8585 37.5498 52.3116 36.8389 52.6398C36.1357 52.9601 35.3389 53.1202 34.4482 53.1202C33.5576 53.1202 32.7568 52.9601 32.0459 52.6398C31.335 52.3116 30.7256 51.8585 30.2178 51.2804C29.7178 50.6945 29.335 50.0109 29.0693 49.2296C28.8037 48.4484 28.6709 47.6007 28.6709 46.6866ZM30.8389 46.4171V46.6866C30.8389 47.3195 30.9131 47.9171 31.0615 48.4796C31.21 49.0343 31.4326 49.5265 31.7295 49.9562C32.0342 50.3859 32.4131 50.7257 32.8662 50.9757C33.3193 51.2179 33.8467 51.339 34.4482 51.339C35.042 51.339 35.5615 51.2179 36.0068 50.9757C36.46 50.7257 36.835 50.3859 37.1318 49.9562C37.4287 49.5265 37.6514 49.0343 37.7998 48.4796C37.9561 47.9171 38.0342 47.3195 38.0342 46.6866V46.4171C38.0342 45.7921 37.9561 45.2023 37.7998 44.6476C37.6514 44.0851 37.4248 43.589 37.1201 43.1593C36.8232 42.7218 36.4482 42.3781 35.9951 42.1281C35.5498 41.8781 35.0264 41.7531 34.4248 41.7531C33.8311 41.7531 33.3076 41.8781 32.8545 42.1281C32.4092 42.3781 32.0342 42.7218 31.7295 43.1593C31.4326 43.589 31.21 44.0851 31.0615 44.6476C30.9131 45.2023 30.8389 45.7921 30.8389 46.4171ZM51.1475 40.2062H53.1162V52.6163C53.1162 53.7335 52.8896 54.6866 52.4365 55.4757C51.9834 56.2648 51.3506 56.8624 50.5381 57.2687C49.7334 57.6827 48.8037 57.8898 47.749 57.8898C47.3115 57.8898 46.7959 57.8195 46.2021 57.6788C45.6162 57.546 45.0381 57.3156 44.4678 56.9874C43.9053 56.6671 43.4326 56.2335 43.0498 55.6866L44.1865 54.3976C44.7178 55.0382 45.2725 55.4835 45.8506 55.7335C46.4365 55.9835 47.0146 56.1085 47.585 56.1085C48.2725 56.1085 48.8662 55.9796 49.3662 55.7218C49.8662 55.464 50.2529 55.0812 50.5264 54.5734C50.8076 54.0734 50.9482 53.4562 50.9482 52.7218V42.9952L51.1475 40.2062ZM42.417 46.6866V46.4406C42.417 45.4718 42.5303 44.5929 42.7568 43.8038C42.9912 43.007 43.3232 42.3234 43.7529 41.7531C44.1904 41.1827 44.7178 40.7452 45.335 40.4406C45.9521 40.1281 46.6475 39.9718 47.4209 39.9718C48.2178 39.9718 48.9131 40.1124 49.5068 40.3937C50.1084 40.6671 50.6162 41.0695 51.0303 41.6007C51.4521 42.1241 51.7842 42.757 52.0264 43.4991C52.2686 44.2413 52.4365 45.0812 52.5303 46.0187V47.0968C52.4443 48.0265 52.2764 48.8624 52.0264 49.6046C51.7842 50.3468 51.4521 50.9796 51.0303 51.5031C50.6162 52.0265 50.1084 52.4288 49.5068 52.7101C48.9053 52.9835 48.2021 53.1202 47.3975 53.1202C46.6396 53.1202 45.9521 52.9601 45.335 52.6398C44.7256 52.3195 44.2021 51.8702 43.7646 51.2921C43.3271 50.714 42.9912 50.0343 42.7568 49.2531C42.5303 48.464 42.417 47.6085 42.417 46.6866ZM44.585 46.4406V46.6866C44.585 47.3195 44.6475 47.9132 44.7725 48.4679C44.9053 49.0226 45.1045 49.5109 45.3701 49.9327C45.6436 50.3546 45.9912 50.6866 46.4131 50.9288C46.835 51.1632 47.3389 51.2804 47.9248 51.2804C48.6436 51.2804 49.2373 51.1281 49.7061 50.8234C50.1748 50.5187 50.5459 50.1163 50.8193 49.6163C51.1006 49.1163 51.3193 48.5734 51.4756 47.9874V45.1632C51.3896 44.7335 51.2568 44.3195 51.0771 43.921C50.9053 43.5148 50.6787 43.1554 50.3975 42.8429C50.124 42.5226 49.7842 42.2687 49.3779 42.0812C48.9717 41.8937 48.4951 41.7999 47.9482 41.7999C47.3545 41.7999 46.8428 41.9249 46.4131 42.1749C45.9912 42.4171 45.6436 42.7531 45.3701 43.1827C45.1045 43.6046 44.9053 44.0968 44.7725 44.6593C44.6475 45.214 44.585 45.8077 44.585 46.4406Z" fill="black"/>
<line x1="11.1382" y1="3.80823" x2="11.1382" y2="50.7199" stroke="black" stroke-width="2"/>
<line x1="11.1382" y1="9.32727" x2="11.1382" y2="56.2389" stroke="black" stroke-width="2"/>
<line x1="54.7744" y1="3.80823" x2="54.7744" y2="25.8843" stroke="black" stroke-width="2"/>
<line x1="27.5928" y1="57.2389" x2="10.1382" y2="57.2389" stroke="black" stroke-width="2"/>
<line x1="45.0474" y1="13.0868" x2="21.7746" y2="13.0868" stroke="black" stroke-width="2"/>
<line x1="45.0474" y1="18.6057" x2="21.7746" y2="18.6057" stroke="black" stroke-width="2"/>
<line x1="45.0474" y1="26.8843" x2="21.7746" y2="26.8843" stroke="black" stroke-width="2"/>
<line x1="53.7744" y1="4.80823" x2="10.1381" y2="4.80823" stroke="black" stroke-width="2"/>
</svg>
