<svg width="65" height="65" viewBox="0 0 65 65" fill="none" xmlns="http://www.w3.org/2000/svg">
<g clip-path="url(#clip0_2416_4325)">
<path d="M32.7988 43.903C31.0096 43.903 29.5098 45.4028 29.5098 47.192C29.5098 48.9812 31.0096 50.481 32.7988 50.481C34.5223 50.481 36.0879 48.9812 36.0089 47.2709C36.0879 45.3896 34.6012 43.903 32.7988 43.903Z" fill="black"/>
<path d="M63.2424 55.5594C65.308 51.9941 65.3211 47.7446 63.2688 44.1925L42.6662 8.51286C40.6269 4.92122 36.9432 2.78992 32.8122 2.78992C28.6811 2.78992 24.9974 4.93438 22.9582 8.4997L2.32927 44.2188C0.276909 47.8104 0.290065 52.0862 2.36874 55.6515C4.42111 59.1774 8.09169 61.2955 12.1964 61.2955H53.349C57.4669 61.2955 61.1638 59.151 63.2424 55.5594ZM58.7693 52.9808C57.6247 54.9542 55.5987 56.1251 53.3358 56.1251H12.1833C9.94671 56.1251 7.93381 54.9805 6.81554 53.0466C5.6841 51.0863 5.67095 48.7445 6.80238 46.7711L27.4313 11.0652C28.5496 9.10489 30.5493 7.94714 32.8122 7.94714C35.0619 7.94714 37.0748 9.11805 38.1931 11.0783L58.8088 46.7842C59.9139 48.705 59.9008 51.0205 58.7693 52.9808Z" fill="black"/>
<path d="M31.9835 20.8139C30.4179 21.2612 29.4443 22.6821 29.4443 24.4056C29.5233 25.4449 29.5891 26.4974 29.668 27.5367C29.8916 31.4968 30.1153 35.3778 30.339 39.3378C30.4179 40.6798 31.4572 41.6533 32.7992 41.6533C34.1411 41.6533 35.1936 40.614 35.2594 39.2589C35.2594 38.4432 35.2594 37.6933 35.3383 36.8645C35.483 34.3253 35.6409 31.7862 35.7856 29.247C35.8646 27.6025 36.0093 25.958 36.0882 24.3135C36.0882 23.7214 36.0093 23.1952 35.7856 22.6689C35.1147 21.1955 33.5491 20.4456 31.9835 20.8139Z" fill="black"/>
</g>
<defs>
<clipPath id="clip0_2416_4325">
<rect width="64" height="64" fill="white" transform="translate(0.799805 0.0426025)"/>
</clipPath>
</defs>
</svg>
