<svg width="65" height="65" viewBox="0 0 65 65" fill="none" xmlns="http://www.w3.org/2000/svg">
<path d="M54.5807 22.9518H53.9436V7.09303C53.9436 6.41112 53.3907 5.85815 52.7087 5.85815H12.8909C12.209 5.85815 11.656 6.41112 11.656 7.09303V22.9518H11.0189C5.93769 22.9518 1.80371 27.0856 1.80371 32.1671V49.7686C1.80371 50.4505 2.35668 51.0035 3.03859 51.0035H11.656V58.6599C11.656 59.3418 12.209 59.8948 12.8909 59.8948H52.7087C53.3907 59.8948 53.9436 59.3418 53.9436 58.6599V51.0035H62.561C63.2429 51.0035 63.7959 50.4505 63.7959 49.7686V32.1671C63.7959 27.0856 59.6619 22.9518 54.5807 22.9518ZM14.1259 8.32791H51.4737V22.9518H14.1259V8.32791ZM51.4737 57.425H14.1259V42.7818H51.4737V57.425ZM61.3261 48.5337H53.9436V42.7818H56.9356C57.6175 42.7818 58.1705 42.2288 58.1705 41.5469C58.1705 40.865 57.6175 40.312 56.9356 40.312H8.66426C7.98235 40.312 7.42938 40.865 7.42938 41.5469C7.42938 42.2288 7.98235 42.7818 8.66426 42.7818H11.6562V48.5337H4.27347V32.1671C4.27347 28.4477 7.29946 25.4217 11.0189 25.4217H54.5806C58.3 25.4217 61.326 28.4477 61.326 32.1671V48.5337H61.3261Z" fill="black"/>
<path d="M54.4717 27.7375C51.9864 27.7375 49.9644 29.7596 49.9644 32.2449C49.9644 34.7303 51.9864 36.7523 54.4717 36.7523C56.9571 36.7523 58.9791 34.7303 58.9791 32.2449C58.9791 29.7596 56.9571 27.7375 54.4717 27.7375ZM54.4717 34.2826C53.3483 34.2826 52.4341 33.3685 52.4341 32.2449C52.4341 31.1215 53.3481 30.2073 54.4717 30.2073C55.5954 30.2073 56.5094 31.1213 56.5094 32.2449C56.5094 33.3685 55.5952 34.2826 54.4717 34.2826Z" fill="black"/>
<path d="M47.2487 45.2747H46.3843C45.7024 45.2747 45.1494 45.8276 45.1494 46.5095C45.1494 47.1915 45.7024 47.7444 46.3843 47.7444H47.2487C47.9306 47.7444 48.4835 47.1915 48.4835 46.5095C48.4835 45.8276 47.9306 45.2747 47.2487 45.2747Z" fill="black"/>
<path d="M41.9383 45.2747H18.3516C17.6697 45.2747 17.1167 45.8276 17.1167 46.5095C17.1167 47.1915 17.6697 47.7444 18.3516 47.7444H41.9383C42.6202 47.7444 43.1732 47.1915 43.1732 46.5095C43.1732 45.8276 42.6202 45.2747 41.9383 45.2747Z" fill="black"/>
</svg>
