<svg width="65" height="69" viewBox="0 0 65 69" fill="none" xmlns="http://www.w3.org/2000/svg">
<path d="M23.6982 9.2749L24.8027 12.5034C22.556 13.202 21.0078 14.4575 20.1582 16.27C19.3086 18.0636 18.8838 20.1216 18.8838 22.4438V28.3062C18.8838 30.1942 18.4967 31.9123 17.7227 33.4604C16.9674 34.9897 15.7591 36.2075 14.0977 37.1138C12.4551 38.02 10.2933 38.4731 7.6123 38.4731V35.0181C9.74577 35.0181 11.2751 34.4139 12.2002 33.2056C13.1442 31.9972 13.6162 30.3641 13.6162 28.3062V22.4438C13.6162 20.4614 13.9183 18.6112 14.5225 16.8931C15.1455 15.1561 16.1839 13.6362 17.6377 12.3335C19.1104 11.0119 21.1305 9.99235 23.6982 9.2749ZM24.8027 61.6108L23.6982 64.8677C21.1305 64.1313 19.1104 63.1118 17.6377 61.8091C16.1839 60.5063 15.1455 58.9865 14.5225 57.2495C13.9183 55.5314 13.6162 53.6812 13.6162 51.6987V45.8647C13.6162 44.4865 13.4085 43.297 12.9932 42.2964C12.5778 41.2957 11.9264 40.5216 11.0391 39.9741C10.1706 39.4077 9.02832 39.1245 7.6123 39.1245V35.6694C10.2933 35.6694 12.4551 36.1226 14.0977 37.0288C15.7591 37.9351 16.9674 39.1623 17.7227 40.7104C18.4967 42.2397 18.8838 43.9578 18.8838 45.8647V51.6987C18.8838 53.2469 19.0632 54.6818 19.4219 56.0034C19.7995 57.325 20.4131 58.4673 21.2627 59.4302C22.1312 60.4119 23.3112 61.1388 24.8027 61.6108ZM40.4072 12.5034L41.5117 9.2749C44.0983 9.99235 46.1185 11.0119 47.5723 12.3335C49.0449 13.6362 50.0833 15.1561 50.6875 16.8931C51.2917 18.6112 51.5938 20.4614 51.5938 22.4438V28.3062C51.5938 29.6655 51.8014 30.855 52.2168 31.8745C52.6322 32.8752 53.2741 33.6493 54.1426 34.1968C55.0299 34.7443 56.1816 35.0181 57.5977 35.0181V38.2183C54.9355 38.2183 52.7738 37.7935 51.1123 36.9438C49.4508 36.0754 48.2331 34.8953 47.459 33.4038C46.7038 31.8934 46.3262 30.1942 46.3262 28.3062V22.4438C46.3262 20.8957 46.1468 19.4608 45.7881 18.1392C45.4294 16.7987 44.8158 15.647 43.9473 14.6841C43.0977 13.7023 41.9176 12.9754 40.4072 12.5034ZM41.5117 64.8677L40.4072 61.6108C41.8988 61.1388 43.0693 60.4119 43.9189 59.4302C44.7874 58.4673 45.401 57.325 45.7598 56.0034C46.1374 54.6818 46.3262 53.2469 46.3262 51.6987V45.8647C46.3262 43.9578 46.7038 42.2586 47.459 40.7671C48.2331 39.2756 49.4508 38.105 51.1123 37.2554C52.7738 36.3869 54.9355 35.9526 57.5977 35.9526V39.1245C55.4831 39.1245 53.9538 39.7381 53.0098 40.9653C52.0658 42.1737 51.5938 43.8068 51.5938 45.8647V51.6987C51.5938 53.6812 51.2917 55.5314 50.6875 57.2495C50.0833 58.9865 49.0449 60.5063 47.5723 61.8091C46.1185 63.1118 44.0983 64.1313 41.5117 64.8677Z" fill="black"/>
</svg>
