<svg width="65" height="65" viewBox="0 0 65 65" fill="none" xmlns="http://www.w3.org/2000/svg">
<path d="M48.6588 10.5683L45.7783 13.4489C45.3805 13.8466 45.3805 14.4915 45.7783 14.8891C45.9772 15.0879 46.2379 15.1874 46.4985 15.1874C46.7591 15.1874 47.0198 15.088 47.2188 14.8891L50.0993 12.0085C50.4971 11.6108 50.4971 10.9659 50.0993 10.5683C49.7013 10.1706 49.0566 10.1706 48.6588 10.5683Z" fill="black"/>
<path d="M50.578 19.6896C50.7769 19.8884 51.0376 19.9879 51.2982 19.9879C51.5588 19.9879 51.8195 19.8885 52.0185 19.6896L54.899 16.809C55.2968 16.4113 55.2968 15.7664 54.899 15.3689C54.5011 14.9711 53.8564 14.9711 53.4587 15.3689L50.5781 18.2494C50.1804 18.6471 50.1804 19.2918 50.578 19.6896Z" fill="black"/>
<path d="M64.8001 16.0892C64.8001 15.8191 64.6928 15.56 64.5019 15.3691L50.0989 0.966268C49.701 0.568536 49.0563 0.568536 48.6585 0.966268L36.8963 12.7285L35.696 11.5282C35.2982 11.1305 34.6534 11.1305 34.2557 11.5282L5.05462 40.7293C2.44974 43.3344 0.900767 46.9753 0.804763 50.7188C0.705771 54.5787 2.09193 58.145 4.7074 60.7604C7.22728 63.2803 10.6599 64.668 14.3732 64.668C18.2564 64.668 22.0348 63.1171 24.7386 60.4132L53.9396 31.2123C54.1305 31.0213 54.2378 30.7623 54.2378 30.4922C54.2378 30.2221 54.1305 29.963 53.9396 29.7721L52.7393 28.5718L64.5017 16.8094C64.6928 16.6184 64.8001 16.3594 64.8001 16.0892ZM23.2983 58.973C20.9736 61.2979 17.7205 62.6311 14.3732 62.6311C11.2041 62.6311 8.28279 61.4553 6.14774 59.3202C3.93095 57.1033 2.75649 54.0672 2.84095 50.7711C2.92351 47.5443 4.25535 44.4091 6.49496 42.1697L34.9758 13.6888L36.1761 14.8891C36.1762 14.8892 51.7793 30.4922 51.7793 30.4922L23.2983 58.973ZM51.2991 27.1315L38.3366 14.169L49.3788 3.12671L62.3414 16.0892L51.2991 27.1315Z" fill="black"/>
<path d="M37.6164 21.1301C37.4254 20.9391 37.1664 20.8318 36.8962 20.8318C36.626 20.8318 36.3671 20.9392 36.1761 21.1301C36.1761 21.1301 10.5857 46.7205 10.4687 46.8375C8.21875 49.0877 8.21875 52.7489 10.4688 54.9991C11.5937 56.124 13.0712 56.6866 14.5492 56.6866C16.0274 56.6866 17.5058 56.1237 18.6316 54.9979C18.6699 54.9595 19.5906 54.0389 19.5906 54.0389L18.1502 52.5987C18.1502 52.5987 17.2273 53.5217 17.1903 53.5589C15.7342 55.0147 13.3652 55.0149 11.9091 53.5589C10.4531 52.103 10.4531 49.7338 11.9093 48.2776C11.995 48.1919 25.6926 34.4943 33.0556 27.1313L38.3366 32.4123L21.0309 49.7182C20.6332 50.1159 20.6332 50.7608 21.0309 51.1584C21.4288 51.5561 22.0735 51.5561 22.4712 51.1584L44.3378 29.2917C44.7355 28.894 44.7355 28.2491 44.3378 27.8515L37.6164 21.1301ZM39.777 30.972L34.4959 25.6909L36.8963 23.2906L42.1774 28.5716L39.777 30.972Z" fill="black"/>
</svg>
