<svg width="65" height="65" viewBox="0 0 65 65" fill="none" xmlns="http://www.w3.org/2000/svg">
<path d="M46.1559 14.7032V22.5439H49.1176V24.6457C49.1176 26.8934 47.289 28.7221 45.0412 28.7221H40.006C37.7158 28.7221 35.6581 29.732 34.2513 31.3285V12.3358H39.8894L33.293 0.909912L26.6964 12.3358H32.3343V39.2264C30.9274 37.6301 28.8698 36.62 26.5796 36.62H21.5447C19.2969 36.62 17.4683 34.7914 17.4683 32.5436V29.3598C19.7169 28.9127 21.4174 26.9249 21.4174 24.5468C21.4174 21.8407 19.2158 19.639 16.5097 19.639C13.8036 19.639 11.6021 21.8406 11.6021 24.5468C11.6021 26.9249 13.3024 28.9127 15.5512 29.3598V32.5436C15.5512 35.8484 18.2399 38.5372 21.5448 38.5372H26.5798C29.7529 38.5372 32.3345 41.1189 32.3345 44.2919V52.2978C29.5385 52.7573 27.3982 55.1897 27.3982 58.1138C27.3982 61.3642 30.0426 64.0088 33.2931 64.0088C36.5437 64.0088 39.1882 61.3643 39.1882 58.1138C39.1882 55.1899 37.0478 52.7574 34.2518 52.2978V36.3941C34.2518 33.2209 36.8333 30.6394 40.0065 30.6394H45.0417C48.3465 30.6394 51.0354 27.9507 51.0354 24.6458V22.544H53.9971V14.7032H46.1559ZM16.5095 27.5374C14.8605 27.5374 13.519 26.1959 13.519 24.5469C13.519 22.898 14.8605 21.5565 16.5095 21.5565C18.1584 21.5565 19.4999 22.898 19.4999 24.5469C19.4999 26.1959 18.1584 27.5374 16.5095 27.5374ZM30.0172 10.4186L33.293 4.74464L36.569 10.4186H30.0172ZM37.2707 58.1138C37.2707 60.3071 35.4863 62.0915 33.293 62.0915C31.0997 62.0915 29.3154 60.3071 29.3154 58.1138C29.3154 55.9205 31.0997 54.1361 33.293 54.1361C35.4863 54.1361 37.2707 55.9205 37.2707 58.1138ZM52.0795 20.6266H48.0733V16.6204H52.0795V20.6266Z" fill="black"/>
</svg>
