<svg width="65" height="65" viewBox="0 0 65 65" fill="none" xmlns="http://www.w3.org/2000/svg">
<g clip-path="url(#clip0_2416_4289)">
<path d="M32.951 56.7079C37.0803 56.7079 40.4278 53.3605 40.4278 49.2311C40.4278 45.1018 37.0803 41.7543 32.951 41.7543C28.8216 41.7543 25.4741 45.1018 25.4741 49.2311C25.4741 53.3605 28.8216 56.7079 32.951 56.7079Z" fill="#030104"/>
<path d="M50.8199 31.217C50.7089 31.103 50.5918 31.0013 50.4778 30.8965L50.1418 30.579C50.0864 30.5205 50.0247 30.4773 49.9538 30.4219C40.2857 21.6383 25.4892 21.9865 16.2618 31.2139L15.1801 32.2988L13.6822 33.7966C11.8577 35.6211 11.867 38.5952 13.6946 40.4228C15.5253 42.2566 18.4993 42.2597 20.3208 40.4351L22.9035 37.8525C28.7715 31.9875 38.3164 31.9875 44.1813 37.8494L46.0459 39.6554C47.8519 41.4614 50.7983 41.4584 52.6136 39.64C53.4919 38.7647 53.9758 37.5967 53.9789 36.3546C53.982 35.1188 53.5043 33.9507 52.6259 33.0785L50.8199 31.217Z" fill="#030104"/>
<path d="M63.5577 21.9743L62.0044 20.421C61.9982 20.4148 61.9951 20.4055 61.9828 20.4025L60.7562 19.1697C60.5405 18.957 60.3062 18.7721 60.0597 18.6118C44.3016 4.77692 20.3332 5.20223 5.07748 19.8785C5.00352 19.9463 4.9203 19.9926 4.84634 20.0665L2.04175 22.8742C0.377495 24.5354 0.386741 27.2383 2.06025 28.9118C3.73067 30.5822 6.43355 30.5945 8.09781 28.9272L10.9024 26.1257C10.9209 26.101 10.9363 26.0794 10.9548 26.064C23.2919 14.1461 42.8623 14.0721 55.298 25.8206L57.5047 28.0303C59.1659 29.6915 61.8749 29.6853 63.5454 28.0149C65.2127 26.3414 65.2189 23.6354 63.5577 21.9743Z" fill="#030104"/>
</g>
<defs>
<clipPath id="clip0_2416_4289">
<rect width="64" height="64" fill="white" transform="translate(0.799805 0.625488)"/>
</clipPath>
</defs>
</svg>
